<?xml version="1.0" standalone="no"?><!DOCTYPE svg PUBLIC "-//W3C//DTD SVG 1.1//EN" "http://www.w3.org/Graphics/SVG/1.1/DTD/svg11.dtd"><svg t="1662132600662" class="icon" viewBox="0 0 1024 1024" version="1.1" xmlns="http://www.w3.org/2000/svg" p-id="894" xmlns:xlink="http://www.w3.org/1999/xlink" width="200" height="200"><path d="M965.3248 452.6592l-193.0752-337.7664a44.77952 44.77952 0 0 0-38.8608-22.528H281.7024c-16.128 0-30.976 8.6528-38.9632 22.6816l-191.0784 337.408a44.79488 44.79488 0 0 0 7.1168 53.5552l421.376 426.0864c17.6128 17.8176 46.4384 17.7152 63.8976-0.256l414.5152-425.728a44.81024 44.81024 0 0 0 6.7584-53.4528z m-230.4 84.736l-190.2592 181.6064c-8.0384 7.68-19.5584 11.52-31.0784 11.52-11.776 0-23.6032-4.0448-31.6416-12.032L299.7248 537.088a25.56928 25.56928 0 0 1-0.0512-36.1984 25.56928 25.56928 0 0 1 36.1984-0.0512l177.8176 177.0496 185.9072-177.408c10.24-9.7792 26.4192-9.3696 36.1984 0.8704 9.728 10.0864 9.3696 26.2656-0.8704 36.0448z" fill="#FF623E" p-id="895"></path></svg>