<?xml version="1.0" standalone="no"?><!DOCTYPE svg PUBLIC "-//W3C//DTD SVG 1.1//EN" "http://www.w3.org/Graphics/SVG/1.1/DTD/svg11.dtd"><svg t="1662167980875" class="icon" viewBox="0 0 1024 1024" version="1.1" xmlns="http://www.w3.org/2000/svg" p-id="997" xmlns:xlink="http://www.w3.org/1999/xlink" width="200" height="200"><path d="M516.7104 515.6864m-445.2864 0a445.2864 445.2864 0 1 0 890.5728 0 445.2864 445.2864 0 1 0-890.5728 0Z" fill="#8C7BFD" p-id="998"></path><path d="M516.7104 746.0352c-26.1632 0-52.3264-9.9328-72.2432-29.9008l-128.1536-128.1536c-39.8336-39.8336-39.8336-104.704 0-144.5376l128.1536-128.1536c19.3024-19.3024 44.9536-29.952 72.2432-29.952s52.9408 10.6496 72.2432 29.952l128.2048 128.1536c39.8336 39.8336 39.8336 104.704 0 144.5376l-128.1536 128.1536c-19.968 19.9168-46.1312 29.9008-72.2944 29.9008z m0-360.5504c-0.8192 0-1.2288 0.4096-1.4336 0.6144l-128.1536 128.1536c-0.768 0.768-0.768 2.0992 0 2.8672l128.1536 128.1536c0.768 0.8192 2.0992 0.768 2.8672 0L646.3488 517.12c0.768-0.768 0.768-2.0992 0-2.8672L518.144 386.0992c-0.2048-0.2048-0.5632-0.6144-1.4336-0.6144z" fill="#FFE37B" p-id="999"></path></svg>